<svg width="184" height="45" viewBox="0 0 184 45" fill="none" xmlns="http://www.w3.org/2000/svg">
<g clip-path="url(#clip0_26372_1704)">
<path d="M4.34215 12.6373V9.12226C4.34215 7.94186 4.57477 6.82236 5.03385 5.75707C5.49231 4.69178 6.11569 3.76901 6.90339 2.98207C7.69108 2.19513 8.61538 1.57082 9.67692 1.10243C10.7385 0.634654 11.8825 0.403809 13.0874 0.403809C13.9366 0.403809 14.6425 0.688855 15.2105 1.25226C15.7791 1.81506 16.0665 2.51429 16.0665 3.35544C16.0665 3.74891 15.9914 4.12227 15.8338 4.48164C15.6831 4.841 15.4708 5.14676 15.1969 5.39101C14.9231 5.64195 14.608 5.84538 14.2517 5.99461C13.8886 6.14384 13.5052 6.22545 13.0874 6.22545H12.9508C12.5532 6.24555 12.1902 6.34057 11.8548 6.51051C11.5194 6.67983 11.2314 6.89728 10.9852 7.16832C10.7385 7.43997 10.5538 7.74513 10.4166 8.09109C10.2794 8.43705 10.2111 8.81041 10.2111 9.20388V12.6373H12.1902C12.608 12.6373 12.992 12.7116 13.3545 12.8682C13.7175 13.0174 14.0258 13.2275 14.2862 13.4851C14.5465 13.7434 14.7588 14.0486 14.9095 14.3945C15.0597 14.7405 15.1422 15.1206 15.1422 15.5341C15.1422 15.9483 15.0671 16.3284 14.9095 16.6877C14.7588 17.0471 14.5465 17.3528 14.2862 17.6105C14.0258 17.8681 13.7108 18.0789 13.3545 18.2281C12.992 18.3773 12.608 18.4589 12.1902 18.4589H10.2111V32.0288C10.2111 32.4423 10.136 32.8224 9.97846 33.1818C9.82769 33.5417 9.61539 33.8536 9.34154 34.1186C9.06769 34.3896 8.75939 34.6003 8.40985 34.7496C8.06092 34.8988 7.68431 34.9798 7.28677 34.9798C6.88985 34.9798 6.51323 34.9055 6.15016 34.7496C5.78708 34.6003 5.472 34.3896 5.20492 34.1186C4.93108 33.8469 4.71877 33.535 4.568 33.1818C4.41723 32.8224 4.33538 32.4423 4.33538 32.0288V18.4589H2.952C2.55446 18.4589 2.17784 18.384 1.81477 18.2281C1.45169 18.0789 1.13662 17.8681 0.86954 17.5971C0.602463 17.3254 0.383384 17.0136 0.232614 16.6609C0.0824605 16.301 0 15.9276 0 15.5341C0 15.1406 0.0750759 14.7405 0.232614 14.3945C0.383384 14.0486 0.595694 13.7434 0.86954 13.4851C1.144 13.2275 1.45846 13.0174 1.81477 12.8682C2.17784 12.7183 2.55446 12.6373 2.952 12.6373H4.33538H4.34215Z" fill="#2E2F86"/>
<path d="M17.8462 22.5093C17.8462 20.7381 18.1883 19.0826 18.8733 17.5361C19.5582 15.989 20.4899 14.632 21.661 13.4717C22.832 12.3114 24.2019 11.3953 25.7631 10.7235C27.3243 10.0523 28.989 9.71973 30.7557 9.71973C32.5225 9.71973 34.221 10.0523 35.7896 10.7235C37.3576 11.3953 38.7274 12.3114 39.8917 13.4717C41.056 14.632 41.9736 15.989 42.6382 17.5361C43.3022 19.0826 43.6376 20.7381 43.6376 22.5093V32.008C43.6376 32.4222 43.5625 32.8023 43.405 33.1616C43.2542 33.521 43.0419 33.8334 42.768 34.0978C42.4942 34.3694 42.1791 34.5796 41.8093 34.7428C41.4394 34.9054 41.0493 34.9871 40.6314 34.9871C39.9256 34.9871 39.3299 34.783 38.8437 34.3694C38.3576 33.9553 38.029 33.44 37.8714 32.8157C36.8437 33.5825 35.7274 34.1928 34.5293 34.6405C33.3305 35.0888 32.0708 35.3123 30.7557 35.3123C28.989 35.3123 27.3176 34.9797 25.7631 34.3085C24.2019 33.6367 22.832 32.7206 21.661 31.5603C20.4899 30.4 19.5582 29.0363 18.8733 27.4825C18.1883 25.9287 17.8462 24.2732 17.8462 22.5227V22.5093ZM23.7225 22.5093C23.7225 23.4589 23.9071 24.3548 24.277 25.2027C24.6468 26.0512 25.1533 26.7973 25.7902 27.4283C26.4271 28.0593 27.1736 28.5612 28.0228 28.9279C28.872 29.2939 29.7834 29.4773 30.7557 29.4773C31.728 29.4773 32.6456 29.2939 33.5022 28.9279C34.3582 28.5612 35.1047 28.0593 35.7348 27.4283C36.3643 26.7906 36.8646 26.0512 37.221 25.2027C37.5834 24.3548 37.7619 23.4522 37.7619 22.5093C37.7619 21.5658 37.5834 20.6364 37.221 19.7885C36.8579 18.9401 36.3643 18.2006 35.7348 17.5763C35.1047 16.9526 34.3582 16.4568 33.5022 16.0908C32.6456 15.7241 31.728 15.5414 30.7557 15.5414C29.7834 15.5414 28.893 15.7241 28.037 16.0908C27.181 16.4568 26.4271 16.9526 25.7902 17.5763C25.1465 18.2006 24.6468 18.9401 24.277 19.7885C23.9071 20.6364 23.7225 21.5457 23.7225 22.5093Z" fill="#2E2F86"/>
<path d="M58.3573 25.6722L64.7198 11.8039C64.9733 11.2472 65.3364 10.8129 65.8158 10.501C66.2952 10.1886 66.8158 10.0327 67.3702 10.0327C67.8016 10.0327 68.2127 10.121 68.5893 10.3043C68.9659 10.4669 69.2878 10.6911 69.5481 10.9761C69.8084 11.2606 70.0072 11.5797 70.1438 11.9257C70.281 12.2717 70.3493 12.645 70.3493 13.0385C70.3493 13.432 70.2601 13.8187 70.0755 14.1921L61.0558 33.2102C60.7684 33.8004 60.3709 34.2347 59.8779 34.5131C59.3782 34.7908 58.9192 34.9473 58.481 34.9808C57.7961 34.9808 57.2139 34.8182 56.7346 34.4856C56.2552 34.1531 55.8921 33.7328 55.6385 33.2102L46.5985 14.1647C46.4207 13.7913 46.3247 13.4052 46.3247 13.0111C46.3247 12.6176 46.393 12.2449 46.5302 11.8989C46.6669 11.5523 46.8656 11.2338 47.1259 10.9487C47.3862 10.6637 47.7013 10.4401 48.057 10.2769C48.2558 10.1886 48.4546 10.121 48.6533 10.0735C48.8515 10.026 49.0502 10.0059 49.249 10.0059C49.8244 10.0059 50.3518 10.1618 50.8312 10.4736C51.3106 10.7861 51.6736 11.2204 51.9266 11.7765L58.3438 25.6722H58.3573Z" fill="#2E2F86"/>
<path d="M71.5933 22.5093C71.5933 20.7381 71.936 19.0826 72.621 17.5361C73.3059 15.989 74.2369 14.632 75.408 13.4717C76.5791 12.3114 77.9489 11.3953 79.5102 10.7235C81.072 10.0523 82.736 9.71973 84.5028 9.71973C86.2702 9.71973 87.9686 10.0523 89.5366 10.7235C91.1053 11.3953 92.4745 12.3114 93.6388 13.4717C94.8031 14.632 95.7213 15.989 96.3853 17.5361C97.0499 19.0826 97.3853 20.7381 97.3853 22.5093C97.3853 24.2799 97.0499 25.9153 96.3853 27.4691C95.7139 29.0229 94.8031 30.3866 93.6388 31.5469C92.4745 32.7072 91.1053 33.6227 89.5366 34.2945C87.9686 34.9663 86.2905 35.2989 84.5028 35.2989C82.7157 35.2989 81.072 34.9663 79.5102 34.2945C77.9489 33.6227 76.5791 32.7072 75.408 31.5469C74.2369 30.3866 73.3059 29.0229 72.621 27.4691C71.936 25.9153 71.5933 24.2598 71.5933 22.5093ZM77.4696 22.5093C77.4696 23.4589 77.6548 24.3548 78.0246 25.2027C78.3939 26.0512 78.901 26.7973 79.5379 27.4283C80.1748 28.0593 80.9213 28.5612 81.7705 28.9279C82.6197 29.2939 83.5305 29.4773 84.5028 29.4773C85.4757 29.4773 86.3933 29.2939 87.2493 28.9279C88.1053 28.5612 88.8517 28.0593 89.4819 27.4283C90.112 26.7906 90.6117 26.0512 90.968 25.2027C91.3243 24.3548 91.5089 23.4522 91.5089 22.5093C91.5089 21.5658 91.3311 20.6364 90.968 19.7885C90.6049 18.9401 90.112 18.2006 89.4819 17.5763C88.8517 16.9526 88.1053 16.4568 87.2493 16.0908C86.3933 15.7241 85.4757 15.5414 84.5028 15.5414C83.5305 15.5414 82.64 15.7241 81.784 16.0908C80.928 16.4568 80.1748 16.9526 79.5379 17.5763C78.8942 18.2006 78.3939 18.9401 78.0246 19.7885C77.6548 20.6364 77.4696 21.5457 77.4696 22.5093Z" fill="#2E2F86"/>
<path d="M106.926 10.0318H116.35C116.768 10.0318 117.151 10.1067 117.514 10.2626C117.877 10.4118 118.192 10.622 118.459 10.8936C118.726 11.1647 118.946 11.4771 119.096 11.8298C119.247 12.1898 119.329 12.5692 119.329 12.9834C119.329 13.397 119.253 13.7502 119.096 14.0962C118.946 14.4422 118.733 14.7473 118.459 15.005C118.185 15.2632 117.87 15.4734 117.514 15.6226C117.151 15.7718 116.768 15.8534 116.35 15.8534H106.926V22.6386C106.926 23.5882 107.111 24.4769 107.481 25.3046C107.851 26.1324 108.351 26.8584 108.981 27.476C109.611 28.0936 110.357 28.5821 111.213 28.9348C112.069 29.2941 112.987 29.4708 113.96 29.4708C114.823 29.4708 115.631 29.3489 116.37 29.1114C117.11 28.8672 117.795 28.4737 118.425 27.917C118.733 27.6319 119.075 27.3944 119.452 27.2043C119.829 27.0149 120.226 26.9199 120.644 26.9199C121.308 26.9199 121.918 27.1642 122.459 27.6459C122.781 27.9304 123.013 28.2697 123.151 28.6631C123.287 29.0572 123.342 29.4641 123.315 29.8849C123.287 30.3052 123.184 30.7127 123 31.1062C122.822 31.4996 122.568 31.8456 122.24 32.1507C121.157 33.1892 119.911 33.9695 118.5 34.4982C117.09 35.0275 115.576 35.2924 113.953 35.2924C112.165 35.2924 110.495 34.9598 108.933 34.3014C107.371 33.6436 106.002 32.7342 104.831 31.5946C103.659 30.4477 102.735 29.1047 102.057 27.5576C101.379 26.0106 101.043 24.355 101.043 22.5838V5.36374C101.043 4.95017 101.125 4.5701 101.29 4.21013C101.454 3.85077 101.666 3.53891 101.941 3.27396C102.215 3.00292 102.53 2.79218 102.885 2.64295C103.248 2.49373 103.625 2.41211 104.023 2.41211C104.419 2.41211 104.796 2.48703 105.146 2.64295C105.495 2.79218 105.803 3.00292 106.063 3.27396C106.323 3.54561 106.536 3.85747 106.687 4.21013C106.837 4.5701 106.919 4.95017 106.919 5.36374V10.0318H106.926Z" fill="#2E2F86"/>
<path d="M132.238 32.1104C132.238 32.5039 132.162 32.8772 132.019 33.2372C131.875 33.5965 131.669 33.9017 131.409 34.1459C131.148 34.3902 130.847 34.6009 130.505 34.7502C130.163 34.8994 129.793 34.9804 129.395 34.9804C128.998 34.9804 128.587 34.9061 128.217 34.7502C127.847 34.5936 127.526 34.3969 127.259 34.1459C126.991 33.895 126.772 33.5898 126.608 33.2372C126.444 32.8772 126.361 32.5039 126.361 32.1104V23.4461C126.361 21.6073 126.718 19.8708 127.43 18.2421C128.142 16.614 129.115 15.1955 130.34 13.9742C131.566 12.753 133.004 11.7961 134.648 11.0908C136.292 10.3849 138.031 10.0322 139.874 10.0322H139.929C140.901 10.0322 141.654 10.3039 142.188 10.8533C142.723 11.396 142.99 12.0952 142.99 12.9297C142.99 13.3432 142.908 13.7233 142.743 14.0827C142.579 14.4426 142.359 14.7478 142.079 15.0054C141.798 15.2637 141.476 15.4738 141.107 15.623C140.737 15.7723 140.346 15.8539 139.929 15.8539H139.874C138.846 15.8539 137.867 16.0506 136.935 16.4441C136.004 16.8376 135.196 17.3735 134.511 18.0521C133.827 18.7306 133.278 19.5242 132.861 20.4403C132.443 21.3497 132.238 22.3266 132.238 23.3645V32.1104Z" fill="#2E2F86"/>
<path d="M146.566 4.10939C146.566 3.66172 146.648 3.24083 146.826 2.84736C146.998 2.45389 147.231 2.11464 147.518 1.82959C147.806 1.54514 148.148 1.3143 148.546 1.14436C148.943 0.975039 149.36 0.886719 149.792 0.886719C150.223 0.886719 150.641 0.968339 151.039 1.14436C151.435 1.3143 151.785 1.54514 152.079 1.82959C152.374 2.11464 152.613 2.45389 152.785 2.84736C152.956 3.24083 153.045 3.66172 153.045 4.10939C153.045 4.55768 152.956 4.94384 152.785 5.33061C152.613 5.71738 152.381 6.04994 152.079 6.33499C151.778 6.62004 151.435 6.85089 151.039 7.02021C150.641 7.19015 150.223 7.27847 149.792 7.27847C149.36 7.27847 148.943 7.19685 148.546 7.02021C148.148 6.85089 147.806 6.62004 147.518 6.33499C147.231 6.04994 146.998 5.71068 146.826 5.33061C146.655 4.94384 146.566 4.53697 146.566 4.10939ZM152.737 32.0841C152.737 32.4776 152.661 32.851 152.504 33.2103C152.346 33.5697 152.141 33.8754 151.88 34.1331C151.621 34.3907 151.312 34.6015 150.963 34.7507C150.614 34.8999 150.23 34.9809 149.813 34.9809C149.395 34.9809 149.039 34.9066 148.675 34.7507C148.312 34.6015 147.997 34.3907 147.73 34.1331C147.463 33.8754 147.244 33.563 147.093 33.2103C146.943 32.851 146.861 32.4776 146.861 32.0841V12.9302C146.861 12.5367 146.943 12.1633 147.107 11.8174C147.272 11.4714 147.484 11.159 147.758 10.8946C148.032 10.623 148.347 10.4195 148.703 10.2636C149.066 10.1144 149.45 10.0328 149.867 10.0328C150.285 10.0328 150.662 10.1077 151.004 10.2636C151.346 10.4128 151.648 10.623 151.915 10.8946C152.175 11.1657 152.381 11.4714 152.525 11.8174C152.668 12.1633 152.744 12.5367 152.744 12.9302V32.0841H152.737Z" fill="#2E2F86"/>
<path d="M158.208 22.5093C158.208 20.7381 158.55 19.0826 159.235 17.5361C159.92 15.989 160.851 14.632 162.022 13.4717C163.193 12.3114 164.563 11.3953 166.125 10.7235C167.686 10.0523 169.35 9.71973 171.118 9.71973C172.884 9.71973 174.583 10.0523 176.151 10.7235C177.719 11.3953 179.089 12.3114 180.253 13.4717C181.417 14.632 182.335 15.989 182.999 17.5361C183.664 19.0826 183.999 20.7381 183.999 22.5093C183.999 24.2799 183.664 25.9153 182.999 27.4691C182.329 29.0229 181.417 30.3866 180.253 31.5469C179.089 32.7072 177.719 33.6227 176.151 34.2945C174.583 34.9663 172.905 35.2989 171.118 35.2989C169.816 35.2989 168.577 35.1156 167.391 34.7495C166.207 34.3828 165.104 33.8676 164.077 33.2091V41.0115C164.077 41.4391 164.009 41.8399 163.871 42.2059C163.735 42.5726 163.543 42.8912 163.289 43.1561C163.036 43.4205 162.735 43.6379 162.385 43.8005C162.036 43.9632 161.639 44.0448 161.207 44.0448C160.776 44.0448 160.406 43.9632 160.043 43.8005C159.68 43.6379 159.365 43.4272 159.098 43.1561C158.831 42.8845 158.612 42.5726 158.447 42.2059C158.283 41.8399 158.201 41.4391 158.201 41.0115V22.5026L158.208 22.5093ZM164.084 22.5093C164.084 23.4589 164.269 24.3548 164.639 25.2027C165.009 26.0512 165.515 26.7973 166.152 27.4283C166.789 28.0593 167.535 28.5612 168.385 28.9279C169.234 29.2939 170.145 29.4773 171.118 29.4773C172.09 29.4773 173.007 29.2939 173.863 28.9279C174.719 28.5612 175.466 28.0593 176.096 27.4283C176.726 26.7973 177.227 26.0512 177.582 25.2027C177.939 24.3548 178.123 23.4522 178.123 22.5093C178.123 21.5658 177.945 20.6364 177.582 19.7885C177.219 18.9401 176.726 18.2006 176.096 17.5763C175.466 16.9526 174.719 16.4568 173.863 16.0908C173.007 15.7241 172.09 15.5414 171.118 15.5414C170.145 15.5414 169.254 15.7241 168.398 16.0908C167.542 16.4568 166.789 16.9526 166.152 17.5763C165.508 18.2006 165.009 18.9401 164.639 19.7885C164.269 20.6364 164.084 21.5457 164.084 22.5093Z" fill="#2E2F86"/>
</g>
<defs>
<clipPath id="clip0_26372_1704">
<rect width="184" height="43.641" fill="white" transform="translate(0 0.407227)"/>
</clipPath>
</defs>
</svg>
